{
  "accessors": [
    {
      "bufferView": 2,
      "componentType": 5126,
      "count": 65533,
      "max": [
        2.162329912185669,
        2.162329912185669,
        1.186110019683838
      ],
      "min": [
        -2.162329912185669,
        -2.162329912185669,
        1.1455800533294678
      ],
      "type": "VEC3"
    },
    {
      "bufferView": 2,
      "byteOffset": 786396,
      "componentType": 5126,
      "count": 65533,
      "max": [
        0.6698006987571716,
        0.6698006987571716,
        -0.742510974407196
      ],
      "min": [
        -0.6698006987571716,
        -0.6697902083396912,
        -1.0
      ],
      "type": "VEC3"
    },
    {
      "bufferView": 1,
      "componentType": 5126,
      "count": 65533,
      "max": [
        0.0,
        0.0
      ],
      "min": [
        0.0,
        0.0
      ],
      "type": "VEC2"
    },
    {
      "bufferView": 0,
      "componentType": 5125,
      "count": 150570,
      "type": "SCALAR"
    },
    {
      "bufferView": 2,
      "byteOffset": 1572792,
      "componentType": 5126,
      "count": 934,
      "max": [
        2.0351200103759766,
        1.7692999839782715,
        1.186110019683838
      ],
      "min": [
        -1.5863100290298462,
        -1.8510899543762207,
        1.1455800533294678
      ],
      "type": "VEC3"
    },
    {
      "bufferView": 2,
      "byteOffset": 1584000,
      "componentType": 5126,
      "count": 934,
      "max": [
        0.2512507438659668,
        0.6455590128898621,
        -0.7425175905227661
      ],
      "min": [
        -0.5773121118545532,
        -0.6167017817497253,
        -1.0
      ],
      "type": "VEC3"
    },
    {
      "bufferView": 1,
      "byteOffset": 524264,
      "componentType": 5126,
      "count": 934,
      "max": [
        0.0,
        0.0
      ],
      "min": [
        0.0,
        0.0
      ],
      "type": "VEC2"
    },
    {
      "bufferView": 0,
      "byteOffset": 602280,
      "componentType": 5125,
      "count": 1494,
      "type": "SCALAR"
    },
    {
      "bufferView": 2,
      "byteOffset": 1595208,
      "componentType": 5126,
      "count": 41186,
      "max": [
        2.500080108642578,
        2.500080108642578,
        1.161329984664917
      ],
      "min": [
        -2.500080108642578,
        -2.500080108642578,
        -1.0657600164413452
      ],
      "type": "VEC3"
    },
    {
      "bufferView": 2,
      "byteOffset": 2089440,
      "componentType": 5126,
      "count": 41186,
      "max": [
        1.0,
        1.0,
        0.5325877666473389
      ],
      "min": [
        -1.0,
        -1.0,
        -0.999293863773346
      ],
      "type": "VEC3"
    },
    {
      "bufferView": 1,
      "byteOffset": 531736,
      "componentType": 5126,
      "count": 41186,
      "max": [
        0.9994500279426575,
        0.6873700022697449
      ],
      "min": [
        0.00011000000085914508,
        0.00011000000085914508
      ],
      "type": "VEC2"
    },
    {
      "bufferView": 0,
      "byteOffset": 608256,
      "componentType": 5125,
      "count": 239616,
      "type": "SCALAR"
    },
    {
      "bufferView": 2,
      "byteOffset": 2583672,
      "componentType": 5126,
      "count": 36864,
      "max": [
        1.087280035018921,
        1.0276299715042114,
        0.13072000443935394
      ],
      "min": [
        -1.087280035018921,
        -1.0857199430465698,
        -0.1239200010895729
      ],
      "type": "VEC3"
    },
    {
      "bufferView": 2,
      "byteOffset": 3026040,
      "componentType": 5126,
      "count": 36864,
      "max": [
        0.9999707341194153,
        0.9999958872795105,
        0.9999263286590576
      ],
      "min": [
        -0.9999707341194153,
        -0.9999969601631165,
        -0.9998850226402283
      ],
      "type": "VEC3"
    },
    {
      "bufferView": 0,
      "byteOffset": 1566720,
      "componentType": 5125,
      "count": 221184,
      "type": "SCALAR"
    },
    {
      "bufferView": 2,
      "byteOffset": 3468408,
      "componentType": 5126,
      "count": 386,
      "max": [
        0.7933700084686279,
        -5.966209888458252,
        0.25088000297546387
      ],
      "min": [
        -0.7933700084686279,
        -6.714789867401123,
        -0.3066900074481964
      ],
      "type": "VEC3"
    },
    {
      "bufferView": 2,
      "byteOffset": 3473040,
      "componentType": 5126,
      "count": 386,
      "max": [
        1.0,
        1.0,
        1.0
      ],
      "min": [
        -1.0,
        -1.0,
        -1.0
      ],
      "type": "VEC3"
    },
    {
      "bufferView": 0,
      "byteOffset": 2451456,
      "componentType": 5125,
      "count": 2304,
      "type": "SCALAR"
    },
    {
      "bufferView": 2,
      "byteOffset": 3477672,
      "componentType": 5126,
      "count": 452,
      "max": [
        1.7070000171661377,
        -1.5277400016784668,
        0.3759100139141083
      ],
      "min": [
        -1.7070000171661377,
        -6.912380218505859,
        -0.6212300062179565
      ],
      "type": "VEC3"
    },
    {
      "bufferView": 2,
      "byteOffset": 3483096,
      "componentType": 5126,
      "count": 452,
      "max": [
        0.9999961256980896,
        0.9999975562095642,
        0.9997027516365051
      ],
      "min": [
        -0.9999961256980896,
        -0.9999869465827942,
        -0.9997751116752625
      ],
      "type": "VEC3"
    },
    {
      "bufferView": 0,
      "byteOffset": 2460672,
      "componentType": 5125,
      "count": 2688,
      "type": "SCALAR"
    },
    {
      "bufferView": 2,
      "byteOffset": 3488520,
      "componentType": 5126,
      "count": 5988,
      "max": [
        7.010069847106934,
        1.7875100374221802,
        1.0078200101852417
      ],
      "min": [
        -7.010069847106934,
        -1.930150032043457,
        -0.823639988899231
      ],
      "type": "VEC3"
    },
    {
      "bufferView": 2,
      "byteOffset": 3560376,
      "componentType": 5126,
      "count": 5988,
      "max": [
        0.9999998211860657,
        0.9999893307685852,
        0.983029842376709
      ],
      "min": [
        -0.9999998211860657,
        -0.9999995827674866,
        -0.7686018943786621
      ],
      "type": "VEC3"
    },
    {
      "bufferView": 1,
      "byteOffset": 861224,
      "componentType": 5126,
      "count": 5988,
      "max": [
        0.0,
        0.0
      ],
      "min": [
        0.0,
        0.0
      ],
      "type": "VEC2"
    },
    {
      "bufferView": 0,
      "byteOffset": 2471424,
      "componentType": 5125,
      "count": 33408,
      "type": "SCALAR"
    },
    {
      "bufferView": 2,
      "byteOffset": 3632232,
      "componentType": 5126,
      "count": 1248,
      "max": [
        6.733290195465088,
        1.4954700469970703,
        0.8490599989891052
      ],
      "min": [
        -6.733290195465088,
        -1.6854699850082397,
        -0.8354399800300598
      ],
      "type": "VEC3"
    },
    {
      "bufferView": 2,
      "byteOffset": 3647208,
      "componentType": 5126,
      "count": 1248,
      "max": [
        0.9998944401741028,
        0.6681972742080688,
        0.999999463558197
      ],
      "min": [
        -0.9998944401741028,
        -0.6687044501304626,
        -0.999999463558197
      ],
      "type": "VEC3"
    },
    {
      "bufferView": 1,
      "byteOffset": 909128,
      "componentType": 5126,
      "count": 1248,
      "max": [
        0.0,
        0.0
      ],
      "min": [
        0.0,
        0.0
      ],
      "type": "VEC2"
    },
    {
      "bufferView": 0,
      "byteOffset": 2605056,
      "componentType": 5125,
      "count": 4992,
      "type": "SCALAR"
    },
    {
      "bufferView": 2,
      "byteOffset": 3662184,
      "componentType": 5126,
      "count": 1764,
      "max": [
        3.2815299034118652,
        2.0827999114990234,
        2.6723101139068604
      ],
      "min": [
        -6.3235602378845215,
        -5.712460041046143,
        1.61080002784729
      ],
      "type": "VEC3"
    },
    {
      "bufferView": 2,
      "byteOffset": 3683352,
      "componentType": 5126,
      "count": 1764,
      "max": [
        0.9999553561210632,
        1.0,
        1.0
      ],
      "min": [
        -1.0,
        -1.0,
        -1.0
      ],
      "type": "VEC3"
    },
    {
      "bufferView": 0,
      "byteOffset": 2625024,
      "componentType": 5125,
      "count": 9984,
      "type": "SCALAR"
    },
    {
      "bufferView": 2,
      "byteOffset": 3704520,
      "componentType": 5126,
      "count": 79,
      "max": [
        5.187439918518066,
        5.301809787750244,
        0.42996999621391296
      ],
      "min": [
        4.087890148162842,
        4.221960067749023,
        0.2708300054073334
      ],
      "type": "VEC3"
    },
    {
      "bufferView": 2,
      "byteOffset": 3705468,
      "componentType": 5126,
      "count": 79,
      "max": [
        0.6701114177703857,
        0.7685174942016602,
        0.9998067021369934
      ],
      "min": [
        -0.6539014577865601,
        -0.7471148371696472,
        0.6187996864318848
      ],
      "type": "VEC3"
    },
    {
      "bufferView": 1,
      "byteOffset": 919112,
      "componentType": 5126,
      "count": 79,
      "max": [
        0.0,
        0.0
      ],
      "min": [
        0.0,
        0.0
      ],
      "type": "VEC2"
    },
    {
      "bufferView": 0,
      "byteOffset": 2664960,
      "componentType": 5125,
      "count": 336,
      "type": "SCALAR"
    },
    {
      "bufferView": 2,
      "byteOffset": 3706416,
      "componentType": 5126,
      "count": 4957,
      "max": [
        6.028979778289795,
        7.228819847106934,
        1.3516000509262085
      ],
      "min": [
        -18.545610427856445,
        -4.368159770965576,
        -1.3516099452972412
      ],
      "type": "VEC3"
    },
    {
      "bufferView": 2,
      "byteOffset": 3765900,
      "componentType": 5126,
      "count": 4957,
      "max": [
        1.0,
        0.9999999403953552,
        0.9999999403953552
      ],
      "min": [
        -1.0,
        -0.9999764561653137,
        -0.9999999403953552
      ],
      "type": "VEC3"
    },
    {
      "bufferView": 1,
      "byteOffset": 919744,
      "componentType": 5126,
      "count": 4957,
      "max": [
        1.0,
        1.0
      ],
      "min": [
        0.0,
        0.0
      ],
      "type": "VEC2"
    },
    {
      "bufferView": 0,
      "byteOffset": 2666304,
      "componentType": 5125,
      "count": 14631,
      "type": "SCALAR"
    },
    {
      "bufferView": 2,
      "byteOffset": 3825384,
      "componentType": 5126,
      "count": 65,
      "max": [
        -16.659400939941406,
        4.861929893493652,
        0.6416199803352356
      ],
      "min": [
        -17.7352294921875,
        4.323319911956787,
        0.491210013628006
      ],
      "type": "VEC3"
    },
    {
      "bufferView": 2,
      "byteOffset": 3826164,
      "componentType": 5126,
      "count": 65,
      "max": [
        0.5415102243423462,
        0.7694915533065796,
        0.9998067021369934
      ],
      "min": [
        -0.5452523827552795,
        -0.7651779055595398,
        0.6183158159255981
      ],
      "type": "VEC3"
    },
    {
      "bufferView": 1,
      "byteOffset": 959400,
      "componentType": 5126,
      "count": 65,
      "max": [
        1.0,
        1.0
      ],
      "min": [
        0.0,
        0.0
      ],
      "type": "VEC2"
    },
    {
      "bufferView": 0,
      "byteOffset": 2724828,
      "componentType": 5125,
      "count": 144,
      "type": "SCALAR"
    }
  ],
  "asset": {
    "extras": {
      "author": "pampi2703 (https://sketchfab.com/pampi2703)",
      "license": "CC-BY-4.0 (http://creativecommons.org/licenses/by/4.0/)",
      "source": "https://sketchfab.com/3d-models/steering-wheel-c51b8a7d88354d8db4501eb6cfb0485e",
      "title": "Steering wheel"
    },
    "generator": "Sketchfab-12.65.0",
    "version": "2.0"
  },
  "bufferViews": [
    {
      "buffer": 0,
      "byteLength": 2725404,
      "name": "floatBufferViews",
      "target": 34963
    },
    {
      "buffer": 0,
      "byteLength": 959920,
      "byteOffset": 2725404,
      "byteStride": 8,
      "name": "floatBufferViews",
      "target": 34962
    },
    {
      "buffer": 0,
      "byteLength": 3826944,
      "byteOffset": 3685324,
      "byteStride": 12,
      "name": "floatBufferViews",
      "target": 34962
    }
  ],
  "buffers": [
    {
      "byteLength": 7512268,
      "uri": "scene.bin"
    }
  ],
  "materials": [
    {
      "doubleSided": true,
      "name": "plus",
      "pbrMetallicRoughness": {
        "baseColorFactor": [
          0.0,
          0.0,
          0.0,
          1.0
        ],
        "metallicFactor": 0.21988636363636363,
        "roughnessFactor": 0.0
      }
    },
    {
      "doubleSided": true,
      "name": "else",
      "pbrMetallicRoughness": {
        "baseColorFactor": [
          0.3730339752705475,
          0.3730339752705475,
          0.3730339752705475,
          1.0
        ],
        "metallicFactor": 0.65625,
        "roughnessFactor": 0.06231060606060606
      }
    },
    {
      "doubleSided": true,
      "name": "minus",
      "pbrMetallicRoughness": {
        "baseColorFactor": [
          0.0,
          0.0,
          0.0,
          1.0
        ],
        "metallicFactor": 0.10473484848484849,
        "roughnessFactor": 0.0
      }
    },
    {
      "doubleSided": true,
      "name": "pads_base",
      "pbrMetallicRoughness": {
        "baseColorFactor": [
          0.04768877759081329,
          0.04768877759081329,
          0.04768877759081329,
          1.0
        ],
        "metallicFactor": 0.050189393939393936,
        "roughnessFactor": 0.3047348484848485
      }
    },
    {
      "doubleSided": true,
      "name": "part4_carbon_fiber",
      "pbrMetallicRoughness": {
        "baseColorFactor": [
          0.002283174543041845,
          0.002283174543041845,
          0.002283174543041845,
          1.0
        ],
        "metallicFactor": 0.050189393939393936,
        "roughnessFactor": 0.5107954545454545
      }
    },
    {
      "doubleSided": true,
      "name": "part4_metal",
      "pbrMetallicRoughness": {
        "roughnessFactor": 0.0
      }
    },
    {
      "doubleSided": true,
      "name": "central_part",
      "pbrMetallicRoughness": {
        "roughnessFactor": 0.05000000074505806
      }
    },
    {
      "doubleSided": true,
      "name": "else.001",
      "pbrMetallicRoughness": {
        "baseColorFactor": [
          0.0396002401328494,
          0.0396002401328494,
          0.0396002401328494,
          1.0
        ],
        "metallicFactor": 0.019886363636363636,
        "roughnessFactor": 0.20000000298023224
      }
    },
    {
      "doubleSided": true,
      "name": "part1",
      "pbrMetallicRoughness": {
        "baseColorFactor": [
          0.1215837705306887,
          0.10122222829948321,
          0.10122222829948321,
          1.0
        ],
        "metallicFactor": 0.15928030303030302,
        "roughnessFactor": 0.4017045454545455
      }
    },
    {
      "doubleSided": true,
      "name": "part3_middle",
      "pbrMetallicRoughness": {
        "baseColorFactor": [
          0.02971905581965998,
          0.027566742560697806,
          0.027566742560697806,
          1.0
        ],
        "metallicFactor": 0.21988636363636363,
        "roughnessFactor": 0.20000000298023224
      }
    },
    {
      "doubleSided": true,
      "name": "part3_metallicPart",
      "pbrMetallicRoughness": {
        "baseColorFactor": [
          0.12454925419222965,
          0.12454925419222965,
          0.12454925419222965,
          1.0
        ],
        "roughnessFactor": 0.6320075757575757
      }
    }
  ],
  "meshes": [
    {
      "name": "part3_0",
      "primitives": [
        {
          "attributes": {
            "NORMAL": 1,
            "POSITION": 0,
            "TEXCOORD_0": 2
          },
          "indices": 3,
          "material": 9,
          "mode": 4
        }
      ]
    },
    {
      "name": "part3_0",
      "primitives": [
        {
          "attributes": {
            "NORMAL": 5,
            "POSITION": 4,
            "TEXCOORD_0": 6
          },
          "indices": 7,
          "material": 9,
          "mode": 4
        }
      ]
    },
    {
      "name": "part3_1",
      "primitives": [
        {
          "attributes": {
            "NORMAL": 9,
            "POSITION": 8,
            "TEXCOORD_0": 10
          },
          "indices": 11,
          "material": 10,
          "mode": 4
        }
      ]
    },
    {
      "name": "part1_0",
      "primitives": [
        {
          "attributes": {
            "NORMAL": 13,
            "POSITION": 12
          },
          "indices": 14,
          "material": 8,
          "mode": 4
        }
      ]
    },
    {
      "name": "part2_0",
      "primitives": [
        {
          "attributes": {
            "NORMAL": 16,
            "POSITION": 15
          },
          "indices": 17,
          "material": 6,
          "mode": 4
        }
      ]
    },
    {
      "name": "part2_1",
      "primitives": [
        {
          "attributes": {
            "NORMAL": 19,
            "POSITION": 18
          },
          "indices": 20,
          "material": 7,
          "mode": 4
        }
      ]
    },
    {
      "name": "part4_0",
      "primitives": [
        {
          "attributes": {
            "NORMAL": 22,
            "POSITION": 21,
            "TEXCOORD_0": 23
          },
          "indices": 24,
          "material": 4,
          "mode": 4
        }
      ]
    },
    {
      "name": "part4_1",
      "primitives": [
        {
          "attributes": {
            "NORMAL": 26,
            "POSITION": 25,
            "TEXCOORD_0": 27
          },
          "indices": 28,
          "material": 5,
          "mode": 4
        }
      ]
    },
    {
      "name": "pads base_0",
      "primitives": [
        {
          "attributes": {
            "NORMAL": 30,
            "POSITION": 29
          },
          "indices": 31,
          "material": 3,
          "mode": 4
        }
      ]
    },
    {
      "name": "paddles_0",
      "primitives": [
        {
          "attributes": {
            "NORMAL": 33,
            "POSITION": 32,
            "TEXCOORD_0": 34
          },
          "indices": 35,
          "material": 0,
          "mode": 4
        }
      ]
    },
    {
      "name": "paddles_1",
      "primitives": [
        {
          "attributes": {
            "NORMAL": 37,
            "POSITION": 36,
            "TEXCOORD_0": 38
          },
          "indices": 39,
          "material": 1,
          "mode": 4
        }
      ]
    },
    {
      "name": "paddles_2",
      "primitives": [
        {
          "attributes": {
            "NORMAL": 41,
            "POSITION": 40,
            "TEXCOORD_0": 42
          },
          "indices": 43,
          "material": 2,
          "mode": 4
        }
      ]
    }
  ],
  "nodes": [
    {
      "children": [
        1
      ],
      "matrix": [
        1.0,
        0.0,
        0.0,
        0.0,
        0.0,
        2.220446049250313e-16,
        -1.0,
        0.0,
        0.0,
        1.0,
        2.220446049250313e-16,
        0.0,
        0.0,
        0.0,
        0.0,
        1.0
      ],
      "name": "Sketchfab_model"
    },
    {
      "children": [
        2,
        6,
        8,
        11,
        14,
        16
      ],
      "name": "Root"
    },
    {
      "children": [
        3,
        4,
        5
      ],
      "name": "part3"
    },
    {
      "mesh": 0,
      "name": "part3_0"
    },
    {
      "mesh": 1,
      "name": "part3_0"
    },
    {
      "mesh": 2,
      "name": "part3_1"
    },
    {
      "children": [
        7
      ],
      "matrix": [
        -6.79804,
        0.0,
        0.0,
        0.0,
        0.0,
        -6.79804,
        0.0,
        0.0,
        0.0,
        0.0,
        -6.79804,
        0.0,
        0.0,
        -0.17457,
        0.56211,
        1.0
      ],
      "name": "part1"
    },
    {
      "mesh": 3,
      "name": "part1_0"
    },
    {
      "children": [
        9,
        10
      ],
      "matrix": [
        1.0,
        0.0,
        0.0,
        0.0,
        0.0,
        1.0,
        0.0,
        0.0,
        0.0,
        0.0,
        1.34257,
        0.0,
        0.0,
        0.0,
        0.6689800000000001,
        1.0
      ],
      "name": "part2"
    },
    {
      "mesh": 4,
      "name": "part2_0"
    },
    {
      "mesh": 5,
      "name": "part2_1"
    },
    {
      "children": [
        12,
        13
      ],
      "matrix": [
        1.0,
        0.0,
        0.0,
        0.0,
        0.0,
        1.0,
        0.0,
        0.0,
        0.0,
        0.0,
        1.0,
        0.0,
        0.0,
        0.0,
        0.3494100000000001,
        1.0
      ],
      "name": "part4"
    },
    {
      "mesh": 6,
      "name": "part4_0"
    },
    {
      "mesh": 7,
      "name": "part4_1"
    },
    {
      "children": [
        15
      ],
      "matrix": [
        0.7528200000000002,
        0.06543000000000002,
        0.0,
        0.0,
        -0.03466000000000001,
        0.3987800000000001,
        0.0,
        0.0,
        0.0,
        0.0,
        0.8801400000000001,
        0.0,
        1.12602,
        0.6868100000000001,
        -2.80631,
        1.0
      ],
      "name": "pads base"
    },
    {
      "mesh": 8,
      "name": "pads base_0"
    },
    {
      "children": [
        17,
        18,
        19
      ],
      "matrix": [
        0.50827,
        0.0,
        0.0,
        0.0,
        0.0,
        0.50827,
        0.0,
        0.0,
        0.0,
        0.0,
        0.2843800000000001,
        0.0,
        3.18089,
        0.22062,
        -0.98417,
        1.0
      ],
      "name": "paddles"
    },
    {
      "mesh": 9,
      "name": "paddles_0"
    },
    {
      "mesh": 10,
      "name": "paddles_1"
    },
    {
      "mesh": 11,
      "name": "paddles_2"
    }
  ],
  "scene": 0,
  "scenes": [
    {
      "name": "Sketchfab_Scene",
      "nodes": [
        0
      ]
    }
  ]
}
